<mxfile host="app.diagrams.net" modified="2023-04-25T04:52:55.450Z" agent="Mozilla/5.0 (Windows NT 10.0; Win64; x64) AppleWebKit/537.36 (KHTML, like Gecko) Chrome/112.0.0.0 Safari/537.36" version="21.2.1" etag="_NJI58rQAh21AKKHP5PV" type="github">
  <diagram name="Page-1" id="ocGGBRnkVJSZGEknhnxQ">
    <mxGraphModel>
      <root>
        <mxCell id="0" />
        <mxCell id="1" parent="0" />
      </root>
    </mxGraphModel>
  </diagram>
</mxfile>
